<svg xmlns="http://www.w3.org/2000/svg" width="1920" height="1374" fill="none" viewBox="0 0 1920 1374"><mask id="mask0_552:4778" width="1920" height="1374" x="0" y="0" maskUnits="userSpaceOnUse" style="mask-type:alpha"><path fill="#171B29" fill-rule="evenodd" d="M1642 1087C1795.54 1087 1920 1211.46 1920 1365V1087H1642ZM1919.86 1374H1920V1365C1920 1368.01 1919.95 1371.01 1919.86 1374Z" clip-rule="evenodd"/><path fill="#171B29" fill-rule="evenodd" d="M278 287C124.465 287 0 162.535 0 9V287H278ZM0.142944 0H0V9C0 5.98853 0.0479126 2.98828 0.142944 0Z" clip-rule="evenodd"/><path fill="#171B29" d="M0 287H1920V1087H0V287Z"/></mask><g mask="url(#mask0_552:4778)"><path fill="url(#paint0_linear_552:4778)" d="M-214 -104.275L-31.5445 1264L768.61 1264L235.22 -104.275L-214 -104.275Z"/><path fill="url(#paint1_linear_552:4778)" d="M934.875 1260.65L490.259 125.189L919.826 18.4211L1398.66 -95.8916L1562.36 -95.8916L1468.68 107.45L1858.53 1260.42L934.875 1260.65Z"/><path fill="#FFD100" d="M217.088 -121.043L399.166 324.659L-32.9048 1264L937.711 1264L859.577 1068.03L1400.77 -97.3751L217.088 -121.043Z"/><path fill="#E20613" d="M1569.94 -142.91L849 1415L1935.1 1415L2777 -478L1569.94 -142.91Z"/><path fill="url(#paint2_linear_552:4778)" d="M1400.77 -96.3245L1400.42 -97.5684L391.328 -97.5684L859.996 1069.49L1400.77 -96.3245Z"/><path fill="url(#paint3_linear_552:4778)" d="M-32.9048 1264H768.609L399.224 324.987L-32.9048 1264Z"/><path fill="url(#paint4_linear_552:4778)" d="M921 1260.65L1756.05 1260.65L1404.09 214.318L921 1260.65Z"/></g><defs><linearGradient id="paint0_linear_552:4778" x1="188.822" x2="188.822" y1="1264" y2="158.131" gradientUnits="userSpaceOnUse"><stop stop-color="#2B3087"/><stop offset=".82" stop-color="#00B4EC"/></linearGradient><linearGradient id="paint1_linear_552:4778" x1="1174.06" x2="1174.06" y1="1260.65" y2="-99.681" gradientUnits="userSpaceOnUse"><stop stop-color="#2B3087"/><stop offset="1" stop-color="#00B4EC"/></linearGradient><linearGradient id="paint2_linear_552:4778" x1="945.345" x2="945.345" y1="1066.14" y2="-97.568" gradientUnits="userSpaceOnUse"><stop stop-color="#009540"/><stop offset="1" stop-color="#26A960"/></linearGradient><linearGradient id="paint3_linear_552:4778" x1="367.852" x2="367.852" y1="324.987" y2="1264" gradientUnits="userSpaceOnUse"><stop stop-color="#3FAE6C"/><stop offset="1" stop-color="#063"/></linearGradient><linearGradient id="paint4_linear_552:4778" x1="921" x2="1756.05" y1="737.586" y2="737.586" gradientUnits="userSpaceOnUse"><stop stop-color="#164194"/><stop offset="1" stop-color="#005CA9"/></linearGradient></defs></svg>