<svg xmlns="http://www.w3.org/2000/svg" width="10" height="10" fill="none" viewBox="0 0 10 10"><path stroke="#fff" stroke-linecap="round" stroke-linejoin="round" stroke-width="2" d="M8.33325 4.47525C8.43609 5.16879 8.31763 5.8771 7.99472 6.49943C7.6718 7.12176 7.16087 7.62643 6.53461 7.94164C5.90834 8.25686 5.19862 8.36658 4.50641 8.25519C3.81419 8.14381 3.17472 7.81699 2.67895 7.32122C2.18318 6.82545 1.85636 6.18598 1.74497 5.49376C1.63359 4.80154 1.74331 4.09183 2.05852 3.46556C2.37374 2.8393 2.87841 2.32837 3.50074 2.00545C4.12307 1.68254 4.83138 1.56407 5.52492 1.66692C6.23235 1.77182 6.88729 2.10147 7.393 2.60717C7.8987 3.11288 8.22835 3.76782 8.33325 4.47525Z"/></svg>