<svg width="20" height="16" viewBox="0 0 20 16" fill="none" xmlns="http://www.w3.org/2000/svg">
<path d="M18.4042 1.94384L20 0.417175V0.0830078H14.4717L10.5317 9.88967L6.04917 0.0830078H0.2525V0.417175L2.11667 2.66134C2.29833 2.82717 2.39333 3.06967 2.36917 3.31384V12.133C2.42667 12.4505 2.32333 12.7772 2.1 13.008L0 15.553V15.883H5.95417V15.5488L3.85417 13.008C3.62667 12.7763 3.51917 12.4555 3.565 12.133V4.50467L8.79167 15.8872H9.39917L13.8933 4.50467V13.5722C13.8933 13.8113 13.8933 13.8605 13.7367 14.0172L12.12 15.5813V15.9163H19.9633V15.5822L18.405 14.0563C18.2683 13.953 18.1975 13.7797 18.2267 13.6113V2.38884C18.1975 2.21967 18.2675 2.04634 18.4042 1.94384Z" fill="white"/>
</svg>
