<svg xmlns="http://www.w3.org/2000/svg" width="961" height="800" fill="none" viewBox="0 0 961 800"><mask id="mask0_552:4844" width="961" height="800" x="0" y="0" maskUnits="userSpaceOnUse" style="mask-type:alpha"><path fill="#fff" d="M0 0H560C780.914 0 960 179.086 960 400V800H0V0Z"/><path fill="#fff" fill-rule="evenodd" d="M960.143 513H960V522C960 518.989 960.048 515.988 960.143 513Z" clip-rule="evenodd"/></mask><g mask="url(#mask0_552:4844)"><path fill="url(#paint0_linear_552:4844)" d="M-296 -9L-187.189 807L290 807L-28.0982 -9L-296 -9Z"/><path fill="url(#paint1_linear_552:4844)" d="M389.156 805L124 127.846L380.181 64.1728L665.743 -4L763.369 -4L707.502 117.267L940 804.865L389.156 805Z"/><path fill="#FFD100" d="M-38.9115 -19L69.6748 246.804L-188 807L390.847 807L344.25 690.129L667 -4.88517L-38.9115 -19Z"/><path fill="#E20613" d="M784.872 -48.4352L390 805L1244.88 805L1706 -232L784.872 -48.4352Z"/><path fill="url(#paint2_linear_552:4844)" d="M667 -4.25821L666.796 -5L65 -5L344.5 691L667 -4.25821Z"/><path fill="url(#paint3_linear_552:4844)" d="M-188 807L290 807L69.7091 247L-188 807Z"/><path fill="url(#paint4_linear_552:4844)" d="M390 805L888 805L678.102 181L390 805Z"/></g><defs><linearGradient id="paint0_linear_552:4844" x1="-55.768" x2="-55.768" y1="807" y2="147.491" gradientUnits="userSpaceOnUse"><stop stop-color="#2B3087"/><stop offset=".82" stop-color="#00B4EC"/></linearGradient><linearGradient id="paint1_linear_552:4844" x1="531.796" x2="531.796" y1="805" y2="-6.26" gradientUnits="userSpaceOnUse"><stop stop-color="#2B3087"/><stop offset="1" stop-color="#118FB7"/></linearGradient><linearGradient id="paint2_linear_552:4844" x1="395.4" x2="395.4" y1="689" y2="-5" gradientUnits="userSpaceOnUse"><stop stop-color="#009540"/><stop offset="1" stop-color="#26A960"/></linearGradient><linearGradient id="paint3_linear_552:4844" x1="51" x2="51" y1="247" y2="807" gradientUnits="userSpaceOnUse"><stop stop-color="#3FAE6C"/><stop offset="1" stop-color="#063"/></linearGradient><linearGradient id="paint4_linear_552:4844" x1="390" x2="888" y1="493.061" y2="493.061" gradientUnits="userSpaceOnUse"><stop stop-color="#164194"/><stop offset="1" stop-color="#005CA9"/></linearGradient></defs></svg>