<svg width="20" height="16" viewBox="0 0 20 16" fill="none" xmlns="http://www.w3.org/2000/svg">
<path d="M19.1668 0.499591C18.3688 1.06249 17.4853 1.49302 16.5502 1.77459C16.0483 1.19752 15.3813 0.788501 14.6394 0.602862C13.8974 0.417224 13.1164 0.46392 12.4019 0.736635C11.6874 1.00935 11.0739 1.49493 10.6443 2.12769C10.2148 2.76045 9.98991 3.50987 10.0002 4.27459V5.10792C8.53569 5.1459 7.08456 4.8211 5.776 4.16246C4.46745 3.50382 3.34209 2.53179 2.50016 1.33292C2.50016 1.33292 -0.83317 8.83292 6.66683 12.1663C4.9506 13.3312 2.90613 13.9154 0.833496 13.8329C8.3335 17.9996 17.5002 13.8329 17.5002 4.24959C17.4994 4.01747 17.4771 3.78592 17.4335 3.55792C18.284 2.71917 18.8842 1.66018 19.1668 0.499591Z" fill="white"/>
</svg>
