<svg xmlns="http://www.w3.org/2000/svg" width="24" height="20" fill="none" viewBox="0 0 24 20"><path fill="#191F30" d="M22.766 2.56612C22.4006 2.41391 21.9981 2.3739 21.6099 2.45119C21.2217 2.52848 20.8653 2.71957 20.586 3.00012L18 5.58612L13.414 1.00012C13.0389 0.625182 12.5303 0.414551 12 0.414551C11.4697 0.414551 10.9611 0.625182 10.586 1.00012L6 5.58612L3.414 3.00012C3.1343 2.7205 2.77797 2.53009 2.39006 2.45296C2.00216 2.37582 1.60009 2.41543 1.23469 2.56677C0.869291 2.71811 0.556965 2.97439 0.337197 3.30321C0.117428 3.63203 8.44486e-05 4.01862 0 4.41412L0 15.0001C0.00158786 16.3257 0.528882 17.5966 1.46622 18.5339C2.40356 19.4712 3.67441 19.9985 5 20.0001H19C20.3256 19.9985 21.5964 19.4712 22.5338 18.5339C23.4711 17.5966 23.9984 16.3257 24 15.0001V4.41412C24.0001 4.01859 23.8829 3.63191 23.6633 3.30297C23.4436 2.97404 23.1314 2.71761 22.766 2.56612Z"/></svg>