<svg width="53" height="34" viewBox="0 0 53 34" fill="none" xmlns="http://www.w3.org/2000/svg">
<path d="M10.2143 12.2002H0.29834L10.7652 33.6848H20.6811L10.2143 12.2002Z" fill="#0B92D2"/>
<path d="M30.5971 6.69141H20.6812L31.8825 33.6848H41.7985L30.5971 6.69141Z" fill="#137BC0"/>
<path d="M20.6812 6.69141H30.5972L20.6812 33.6848H10.7653L20.6812 6.69141Z" fill="#0E763F"/>
<path fill-rule="evenodd" clip-rule="evenodd" d="M15.0278 22.0811L10.7651 33.6851H20.6811L15.0278 22.0811Z" fill="#FFD100"/>
<path fill-rule="evenodd" clip-rule="evenodd" d="M10.7651 33.6851H20.6811L15.0278 22.0811L10.7651 33.6851Z" fill="#FFD100"/>
<path d="M43.0836 0.81543H52.9995L41.6145 33.685H31.6986L43.0836 0.81543Z" fill="#E20613"/>
<path fill-rule="evenodd" clip-rule="evenodd" d="M36.2935 20.4199L31.7823 33.4444L31.8824 33.6856H41.7983L41.6982 33.4444L36.2935 20.4199Z" fill="#0E4B9C"/>
<path fill-rule="evenodd" clip-rule="evenodd" d="M41.6147 33.6856L41.6982 33.4444L36.2935 20.4199L31.7823 33.4444L31.6987 33.6856H41.6147Z" fill="#0E4B9C"/>
</svg>
