<svg xmlns="http://www.w3.org/2000/svg" width="53" height="34" fill="none" viewBox="0 0 53 34"><path fill="#0B92D2" d="M10.2143 12.2002H0.29834L10.7652 33.6848H20.6811L10.2143 12.2002Z"/><path fill="#137BC0" d="M30.5971 6.69141H20.6812L31.8825 33.6848H41.7985L30.5971 6.69141Z"/><path fill="#0E763F" d="M20.6812 6.69141H30.5972L20.6812 33.6848H10.7653L20.6812 6.69141Z"/><path fill="#FFD100" fill-rule="evenodd" d="M15.0278 22.0811L10.7651 33.6851H20.6811L15.0278 22.0811Z" clip-rule="evenodd"/><path fill="#FFD100" fill-rule="evenodd" d="M10.7651 33.6851H20.6811L15.0278 22.0811L10.7651 33.6851Z" clip-rule="evenodd"/><path fill="#E20613" d="M43.0836 0.81543H52.9995L41.6145 33.685H31.6986L43.0836 0.81543Z"/><path fill="#0E4B9C" fill-rule="evenodd" d="M36.2935 20.4199L31.7823 33.4444L31.8824 33.6856H41.7983L41.6982 33.4444L36.2935 20.4199Z" clip-rule="evenodd"/><path fill="#0E4B9C" fill-rule="evenodd" d="M41.6147 33.6856L41.6982 33.4444L36.2935 20.4199L31.7823 33.4444L31.6987 33.6856H41.6147Z" clip-rule="evenodd"/></svg>